<?xml version="1.0" encoding="UTF-8"?>
<svg width="224px" height="372px" viewBox="0 0 224 372" version="1.1" xmlns="http://www.w3.org/2000/svg" xmlns:xlink="http://www.w3.org/1999/xlink">
    <!-- Generator: Sketch 41.2 (35397) - http://www.bohemiancoding.com/sketch -->
    <title>Shape</title>
    <desc>Created with Sketch.</desc>
    <defs></defs>
    <g id="Page-1" stroke="none" stroke-width="1" fill="none" fill-rule="evenodd">
        <g id="1-neighborhood" transform="translate(1.000000, 0.000000)" stroke="#808285" fill="#808285">
            <path d="M192.007,370.755 C187.565,372.805 138.879,343.159 138.879,343.159 C138.879,343.159 121.914,317.937 114.12,311.179 C107.231,305.205 89.619,303.7 83.945,295.704 C82.751,294.021 82.679,286.422 83.429,284.099 C84.214,281.67 92.611,279.967 92.714,277.136 C92.972,269.979 91.596,261.275 91.08,256.503 C90.933,255.142 91.499,250.923 90.135,250.829 C82.656,250.313 79.349,251.884 77.756,249.539 C75.564,246.315 80.83,241.274 81.366,239.094 C83.193,231.671 77.21,215.509 80.335,208.532 C81.168,206.672 84.869,205.702 85.88,204.277 C88.269,200.907 86.27,191.617 88.072,187.9 C88.674,186.658 91.758,185.737 92.457,184.547 C94.024,181.879 94.173,174.743 92.457,172.168 C88.159,165.72 83.339,169.24 80.421,167.956 C76.123,166.064 67.664,154.649 64.947,149.214 C63.111,145.541 62.683,136.264 59.445,133.74 C53.843,129.374 31.247,133.911 31.247,133.911 C31.247,133.911 18.848,139.054 15.085,137.35 C5.973,133.224 -0.539,121.01 0.127,114.139 C1.674,98.149 17.148,95.055 23.682,95.914 C29.199,96.64 38.95,104.376 44.486,103.823 C51.364,103.135 71.996,88.521 71.996,83.707 C71.996,78.546 72.675,61.274 73.887,61.011 C77.842,60.152 88.579,70.04 93.488,65.653 C101.57,58.432 77.666,49.791 78.702,43.818 C79.768,37.671 101.134,40.818 100.882,38.144 C97.787,5.304 106.212,1.178 110.854,1.006 C113.732,0.9 120.689,0.525 123.577,1.006 C125.64,1.35 106.383,23.529 122.889,42.443 C124.756,44.583 133.361,44.842 133.549,49.836 C133.893,58.949 128.252,58.336 128.391,61.528 C128.735,69.437 135.096,76.315 140.082,76.658 C150.659,77.387 161.746,76.83 170.858,78.033 C174.095,78.461 174.162,87.909 172.921,90.929 C172.225,92.624 169.135,95.458 169.139,97.29 C169.142,99.114 172.643,100.429 173.437,101.761 C175.753,105.644 171.94,116.071 175.157,118.954 C180.143,123.424 198.025,136.833 203.183,141.992 C205.444,144.253 203.354,159.016 203.354,159.016 L210.06,167.269 C210.06,167.269 191.491,184.119 192.522,200.625 C193.469,215.774 211.607,220.914 211.607,220.914 L216.25,235.356 C216.25,235.356 206.334,266.7 210.232,276.278 C211.836,280.219 221.598,284.947 222.439,288.141 C223.6,292.546 214.876,304.619 214.251,311.502 C213.671,317.886 215.8,317.697 216.121,320.206 C216.766,325.235 199.228,343.676 199.228,343.676 C199.228,343.676 195.359,369.207 192.007,370.755 Z" id="Shape"></path>
        </g>
    </g>
</svg>