<?xml version="1.0" encoding="utf-8"?>
<!-- Generator: Adobe Illustrator 18.1.1, SVG Export Plug-In . SVG Version: 6.00 Build 0)  -->
<!DOCTYPE svg PUBLIC "-//W3C//DTD SVG 1.1//EN" "http://www.w3.org/Graphics/SVG/1.1/DTD/svg11.dtd">
<svg version="1.1" id="Calque_1" xmlns="http://www.w3.org/2000/svg" xmlns:xlink="http://www.w3.org/1999/xlink" x="0px" y="0px"
	 width="628px" height="164.4px" viewBox="0 0 628 164.4" style="enable-background:new 0 0 628 164.4;" xml:space="preserve">
<path style="fill:none;stroke:#1A171B;" d="M158.9,89.4"/>
<g>
	<g>
		<g>
			<path style="fill:#11204C;" d="M161.4,89.2l17-74.5h-28.5L153,0.9h76.1l-2.1,9.9c-0.5,2.8-1.9,3.9-4.8,3.9h-23.2l-17,74.5H161.4z
				"/>
			<path style="fill:#11204C;" d="M230,27.4c0.7-3,2.7-4.4,5.7-4.4h15l-15.2,66.2h-19.6L230,27.4z M253.6,10.4
				c-0.7,3-2.3,4.2-5.3,4.2h-15.4l2.3-9.9c0.5-2.5,2.1-3.9,5.1-3.9h15.4L253.6,10.4z"/>
			<path style="fill:#11204C;" d="M317,27.3c-1.6,6.7-5.1,8.7-11.2,8.7h-9.2c-9,0-15.4,2.3-18.6,9.4c-2.5,5.3-4.6,14-4.6,19.3
				c0,8.5,4.2,11.7,15,11.7h16.5l-3,12.9h-19.3c-20.7,0-31.3-8.9-29.6-26.6c0.7-7.4,2.1-12.4,4.1-17.7c5.8-15.2,18.8-22,41.6-22H318
				L317,27.3z"/>
			<path style="fill:#11204C;" d="M312.4,89.2l19.5-85.1c0.4-1.8,1.4-2.7,3.4-2.8L352.4,0l-10.4,45.3c14.5-4.1,23-10.8,29.2-22.3
				h22.3c-7.4,15-18.8,24.8-35.8,30.6c9,9.7,17.3,21.1,27.6,35.6h-24.4c-7.8-11.3-14.5-20.2-22.3-28.9L332,89.2H312.4z"/>
			<path style="fill:#11204C;" d="M430.4,22.1c21.2,0,27.3,9.2,27.3,17.3c0,4.1-0.7,8-1.9,11.3c-3.4,9.6-11.2,12.7-24.6,12.7h-24.1
				c-1.1,9.6,3.7,12.7,12.7,12.7h26.4l-2.5,10.1c-0.4,1.6-1.2,2.8-3.5,2.8h-24.4c-17.5,0-28.1-7.6-28.1-25.5
				c0-7.3,1.6-12.7,3.7-18.9c5.1-14.7,19.5-22.7,36.1-22.7H430.4z M428.7,51c4.6,0,7.3-1.4,8.7-4.8c0.7-1.8,0.9-3,1.1-5.3
				c0.2-3-1.4-6.4-9-6.4h-2.8c-10.3,0-15.2,6.2-17.2,16.5H428.7z"/>
			<path style="fill:#11204C;" d="M506.6,32c-0.5,2.8-2.1,3.9-5.3,3.9h-17.2l-6.5,28.9c-1.6,6.9,1.4,11.5,8.1,11.5h12.2L495,89.2
				h-16.5c-15.9,0-24.3-9.4-20.4-26l11.7-50.8c0.4-1.8,1.2-2.8,3.4-3l17.2-1.2L486.9,23h21.6L506.6,32z"/>
		</g>
	</g>
	<g>
		<path style="fill:#11204C;" d="M145.2,161.7l12.4-55.2c0.6-2.5,2.6-3.3,4.6-3.3h23.7c11.7,0,18.9,6.3,17.2,15.9l-0.4,2
			c-1.3,7.3-6.2,11.5-13.5,13.9l11.5,26.6h-11.8c-2.6,0-3.6-0.5-4.7-2.6l-9-22.1h-10.8l-5.6,24.7H145.2z M177.4,127.8
			c6.7,0,10.2-2.3,11.2-7.4l0.2-1.2c0.7-3.5-0.5-6.9-6.2-6.9h-12.6l-3.5,15.5H177.4z"/>
		<path style="fill:#11204C;" d="M231.1,117.3c14.1,0,18,6.1,18,11.5c0,2.7-0.5,5.3-1.3,7.5c-2.2,6.3-7.4,8.4-16.3,8.4h-15.9
			c-0.7,6.3,2.5,8.4,8.4,8.4h17.5l-1.6,6.7c-0.2,1.1-0.8,1.9-2.3,1.9h-16.2c-11.6,0-18.6-5-18.6-16.9c0-4.8,1.1-8.4,2.5-12.5
			c3.4-9.7,12.9-15,23.9-15H231.1z M229.9,136.4c3,0,4.8-0.9,5.7-3.2c0.5-1.2,0.6-2,0.7-3.5c0.1-2-0.9-4.2-6-4.2h-1.9
			c-6.8,0-10.1,4.1-11.4,10.9H229.9z"/>
		<path style="fill:#11204C;" d="M293.9,120.9c-1.1,4-4,5.5-8.2,5.5h-10.8c-6.1,0-7.8,1.5-7.8,3.3c0,1.5,1.2,2.3,3.4,3.3l8.3,3.5
			c6.9,2.9,9.8,6.6,9.8,10.7c0,7.6-5.6,14.5-22.6,14.5h-20.8l0.7-3c0.7-3.3,3.3-6.1,9.4-6.1h11.2c7.3,0,8.2-2,8.2-3.7
			c0-1.2-1.2-2.2-3-3l-11.1-4.8c-4.1-1.8-7.7-4.6-7.5-9.7c0.5-9.4,10.8-13.4,23.3-13.4h18.4L293.9,120.9z"/>
		<path style="fill:#11204C;" d="M325.9,123.8c-0.4,1.9-1.4,2.6-3.5,2.6h-11.4l-4.3,19.1c-1.1,4.6,0.9,7.6,5.4,7.6h8.1l-1.9,8.5
			h-10.9c-10.5,0-16-6.2-13.5-17.2l7.7-33.6c0.2-1.2,0.8-1.9,2.2-2l11.4-0.8l-2.3,9.8h14.3L325.9,123.8z"/>
		<path style="fill:#11204C;" d="M351.2,117.9c19.7,0,19.4,8.1,16.5,20.6l-5.2,22.1c-5.9,0.9-12.2,1.6-18.9,1.6
			c-10.3,0-19.1-3.3-19.1-13.1c0-11.1,9.3-15.1,19.1-15.1h12.1l0.2-1.3c0.6-3.3,0.8-6.3-4.9-6.3h-17c-0.9,0-1.6-0.6-1.4-1.6l1.6-6.9
			H351.2z M353.9,142.1h-9.6c-4.3,0-6.7,2.5-6.7,6.1c0,4.5,4.3,5.3,8,5.3c2.5,0,4.3-0.4,6-0.9L353.9,142.1z"/>
		<path style="fill:#11204C;" d="M426,117.9l-9.7,42.4c-6.6,1.1-16.4,2-25.2,2c-13.5,0-19.6-6.2-16.9-17.8l6.1-26.6h13l-6.1,26.5
			c-1.3,5.7-0.4,9,6.9,9c3.7,0,7.5-0.2,11-0.8l8-34.7H426z"/>
		<path style="fill:#11204C;" d="M425.6,161.7c0,0,8.4-36.8,9.5-41.2c6.3-2,13.8-3.2,21.8-3.2h6.6l-2.2,11c-2.1-0.7-4.1-1.2-7-1.2
			c-2.8,0-5.7,0.4-7.8,1.2l-7.7,33.4H425.6z"/>
		<path style="fill:#11204C;" d="M486.5,117.9c19.7,0,19.4,8.1,16.5,20.6l-5.2,22.1c-5.9,0.9-12.2,1.6-18.9,1.6
			c-10.3,0-19.1-3.3-19.1-13.1c0-11.1,9.3-15.1,19.1-15.1h12.1l0.2-1.3c0.6-3.3,0.8-6.3-4.9-6.3h-17c-0.9,0-1.6-0.6-1.4-1.6l1.6-6.9
			H486.5z M489.2,142.1h-9.6c-4.3,0-6.7,2.5-6.7,6.1c0,4.5,4.3,5.3,8,5.3c2.5,0,4.3-0.4,6-0.9L489.2,142.1z"/>
		<path style="fill:#11204C;" d="M505.7,161.7l9.7-42.4c6.6-1.1,16.4-2,25.2-2c13.5,0,19.6,6.2,16.9,17.8l-6.1,26.6h-13l6.1-26.5
			c1.3-5.7,0.4-9-6.9-9c-3.7,0-7.5,0.2-11,0.8l-8,34.7H505.7z"/>
		<path style="fill:#11204C;" d="M595.2,123.8c-0.4,1.9-1.4,2.6-3.5,2.6h-11.4l-4.3,19.1c-1.1,4.6,0.9,7.6,5.4,7.6h8.1l-1.9,8.5
			h-10.9c-10.5,0-16-6.2-13.5-17.2l7.7-33.6c0.2-1.2,0.8-1.9,2.2-2l11.4-0.8l-2.3,9.8h14.3L595.2,123.8z"/>
	</g>
	<g>
		<path style="fill:#11204C;" d="M617.2,102c7.7,0,11.7,4.9,10.6,11.9c-1.1,7.2-5.4,12-14.3,12c-6.9,0-11.6-5.2-10.3-12.3
			C604.4,106.5,609.2,102,617.2,102z M614,123.4c6.3,0,9.7-3,10.9-9.6c1-5.6-1.8-9.4-8-9.4c-6.4,0-9.9,3.6-10.8,9.4
			C605,120.1,608.2,123.4,614,123.4z M608.5,120l2.6-11.3c0.2-1.1,0.9-1.7,2.4-1.7h3.9c3,0,4.4,1.3,3.9,3.6l-0.2,0.8
			c-0.4,1.7-1.4,2.7-3,3.2l2.7,5.5h-2.7c-0.6,0-0.9-0.2-1.1-0.7l-2-4.4h-2.4l-1.2,5.1H608.5z M615.7,112.9c1.5,0,2.3-0.6,2.5-1.8
			l0.1-0.5c0.2-0.9-0.2-1.6-1.6-1.6h-2.7l-0.9,3.9H615.7z"/>
	</g>
</g>
<radialGradient id="SVGID_1_" cx="233.4402" cy="-20.4856" r="111.0107" gradientTransform="matrix(1 0 0 1 -196 113.9998)" gradientUnits="userSpaceOnUse">
	<stop  offset="0.6533" style="stop-color:#DC291A"/>
	<stop  offset="0.9526" style="stop-color:#FFFFFF"/>
</radialGradient>
<path style="fill:url(#SVGID_1_);" d="M129.8,66c0,35.8-29.1,64.9-64.9,64.9C29.1,131,0,101.9,0,66C0,30.2,29.1,1.1,64.9,1.1
	C100.8,1.1,129.8,30.2,129.8,66z"/>
<defs>
	<filter id="Adobe_OpacityMaskFilter" filterUnits="userSpaceOnUse" x="11.1" y="139" width="107.7" height="25.5">
		<feColorMatrix  type="matrix" values="1 0 0 0 0  0 1 0 0 0  0 0 1 0 0  0 0 0 1 0"/>
	</filter>
</defs>
<mask maskUnits="userSpaceOnUse" x="11.1" y="139" width="107.7" height="25.5" id="SVGID_2_">
	<g style="filter:url(#Adobe_OpacityMaskFilter);">
		
			<radialGradient id="SVGID_3_" cx="45.4915" cy="-1944.8934" r="56.57" gradientTransform="matrix(0.952 0 0 0.225 21.6044 589.3188)" gradientUnits="userSpaceOnUse">
			<stop  offset="0" style="stop-color:#FFFFFF"/>
			<stop  offset="0.1265" style="stop-color:#FBFBFB"/>
			<stop  offset="0.2522" style="stop-color:#EFEFEF"/>
			<stop  offset="0.3776" style="stop-color:#DBDBDB"/>
			<stop  offset="0.5029" style="stop-color:#BFBFBF"/>
			<stop  offset="0.6281" style="stop-color:#9B9B9B"/>
			<stop  offset="0.7534" style="stop-color:#6F6F6F"/>
			<stop  offset="0.8768" style="stop-color:#3B3B3B"/>
			<stop  offset="1" style="stop-color:#000000"/>
		</radialGradient>
		<path style="fill:url(#SVGID_3_);" d="M118.8,151.7c0,7-24.1,12.7-53.9,12.7c-29.7,0-53.9-5.7-53.9-12.7c0-7,24.1-12.7,53.9-12.7
			C94.7,139,118.8,144.7,118.8,151.7z"/>
	</g>
</mask>
<rect x="11.1" y="139" style="mask:url(#SVGID_2_);fill:#11204C;" width="107.7" height="25.5"/>
</svg>
